<svg width="217" height="57" viewBox="0 0 217 57" fill="none" xmlns="http://www.w3.org/2000/svg">
<path d="M26.607 13.7472V15.7383C26.607 21.4644 24.835 25.1307 20.8726 26.9571C25.6443 28.7834 27.4999 33.0127 27.4999 38.9036V43.435C27.4999 52.031 22.8957 56.6448 13.9941 56.6448H0V0.921875H13.4221C22.6445 0.921875 26.607 5.15122 26.607 13.7472ZM8.90155 8.88622V23.634H12.3757C15.6963 23.634 17.7194 22.2608 17.7194 17.7431V14.6123C17.7194 10.6439 16.3242 8.88622 13.1849 8.88622H8.90155ZM8.90155 31.5709V48.6942H13.9523C16.9381 48.6942 18.5565 47.3211 18.5565 43.2016V38.3406C18.5565 33.1637 16.8683 31.5709 12.8221 31.5709H8.90155Z" fill="white"/>
<path d="M61.6278 56.5899H52.6565L51.1217 46.4834H40.1971L38.6624 56.5899H30.4863L39.5553 0.921875H52.5728L61.6278 56.5899ZM41.3272 38.9722H49.9079L45.6106 10.7949L41.3272 38.9722Z" fill="white"/>
<path d="M92.3639 13.7472V15.7383C92.3639 21.4644 90.5781 25.1307 86.6156 26.9571C91.3873 28.7834 93.2569 33.0127 93.2569 38.9036V43.435C93.2569 52.031 88.6387 56.6448 79.7511 56.6448H65.7988V0.921875H79.2209C88.4015 0.921875 92.3639 5.15122 92.3639 13.7472ZM74.6446 8.88622V23.634H78.1326C81.4393 23.634 83.4624 22.2608 83.4624 17.7431V14.6123C83.4624 10.6439 82.0672 8.88622 78.9419 8.88622H74.6446ZM74.6446 31.5709V48.6942H79.7511C82.7369 48.6942 84.3553 47.3211 84.3553 43.2016V38.3406C84.3553 33.1637 82.6532 31.5709 78.621 31.5709H74.6446Z" fill="white"/>
<path d="M105.702 38.1758L94.4707 0.921875H103.763L110.558 26.3803L117.352 0.921875H125.849L114.604 38.1758V56.5899H105.702V38.1758Z" fill="white"/>
<path d="M129.408 0.921875H138.31V48.6942H152.946V56.5899H129.408V0.921875Z" fill="white"/>
<path d="M156.098 14.0063C156.098 5.09444 160.869 0 169.603 0C178.338 0 183.109 5.09444 183.109 14.0063V42.98C183.109 51.9056 178.338 57 169.603 57C160.869 57 156.098 51.9056 156.098 42.98V14.0063ZM164.999 43.543C164.999 47.5252 166.771 49.0357 169.603 49.0357C172.436 49.0357 174.208 47.5252 174.208 43.543V13.457C174.208 9.47483 172.436 7.96435 169.603 7.96435C166.771 7.96435 164.999 9.47483 164.999 13.457V43.543Z" fill="white"/>
<path d="M196.728 16.2876V56.5899H188.775V0.921875H199.937L209.076 34.276V0.921875H217.001V56.5899H207.89L196.728 16.2876Z" fill="white"/>
</svg>
