<svg width="296" height="73" viewBox="0 0 296 73" fill="none" xmlns="http://www.w3.org/2000/svg">
<path d="M33.9321 0.224392C19.1003 0.224392 12.791 10.7796 12.791 10.7796H12.5251V1.26584H0V67.813H12.5251V37.0129C12.5251 21.4334 18.9925 9.4567 33.853 10.2378C47.8944 11.3778 47.5782 25.4866 47.571 34.9933V67.813H60.0961V26.6758C59.7727 11.7226 52.6012 -0.373738 33.9321 0.224392Z" fill="#070707"/>
<path d="M260.634 3.72874e-05C255.965 -0.00667666 251.342 0.893358 247.031 2.64805C242.72 4.40275 238.808 6.97725 235.52 10.2226C232.232 13.4679 229.633 17.3196 227.876 21.5547C226.118 25.7898 225.235 30.3243 225.279 34.8956C225.212 39.4841 226.077 44.0399 227.824 48.2981C229.571 52.5563 232.165 56.432 235.455 59.6999C238.745 62.9679 242.666 65.5629 246.989 67.3341C251.312 69.1053 255.951 70.0174 260.637 70.0174C265.324 70.0174 269.963 69.1053 274.286 67.3341C278.609 65.5629 282.53 62.9679 285.82 59.6999C289.11 56.432 291.704 52.5563 293.451 48.2981C295.198 44.0399 296.063 39.4841 295.996 34.8956C296.039 30.3239 295.155 25.7893 293.397 21.5542C291.638 17.319 289.039 13.4674 285.751 10.2222C282.462 6.97693 278.549 4.40254 274.238 2.64793C269.926 0.893323 265.303 -0.00666712 260.634 3.72874e-05ZM260.634 59.1515C246.463 59.1515 236.733 48.2163 236.733 34.7549C236.733 21.4412 246.478 10.3653 260.634 10.3653C274.79 10.3653 284.563 21.4412 284.563 34.7549C284.563 48.2163 274.805 59.1515 260.634 59.1515Z" fill="#070707"/>
<path d="M182.522 3.72874e-05C177.854 -0.00667666 173.231 0.893358 168.92 2.64805C164.609 4.40275 160.696 6.97725 157.408 10.2226C154.12 13.4679 151.522 17.3196 149.764 21.5547C148.006 25.7898 147.124 30.3243 147.168 34.8956C147.186 41.1552 148.933 47.2933 152.224 52.6595C155.515 58.0258 160.227 62.4203 165.861 65.3775C171.495 68.3347 177.841 69.7444 184.227 69.4573C190.612 69.1702 196.799 67.1969 202.133 63.7466L210.433 73L217.446 65.9632L209.542 57.1883C214.93 51.0169 217.875 43.1557 217.841 35.0364C217.841 15.5514 202.233 3.72874e-05 182.522 3.72874e-05ZM202.269 48.913L192.36 37.8441L184.915 44.712L194.94 55.7809C191.195 57.9988 186.899 59.1649 182.522 59.1515C168.345 59.1515 158.615 48.2163 158.615 34.7549C158.579 21.4412 168.309 10.3653 182.522 10.3653C196.736 10.3653 206.423 21.4412 206.423 34.7549C206.509 39.779 205.049 44.7122 202.233 48.913H202.269Z" fill="#070707"/>
<path d="M103.513 3.72874e-05C98.8442 -0.00667666 94.2208 0.893358 89.9099 2.64805C85.5991 4.40275 81.6864 6.97725 78.3984 10.2226C75.1103 13.4679 72.5122 17.3196 70.7544 21.5547C68.9967 25.7898 68.1141 30.3243 68.1578 34.8956C68.1578 39.4421 69.0723 43.9441 70.849 48.1446C72.6258 52.345 75.23 56.1616 78.513 59.3765C81.796 62.5913 85.6935 65.1415 89.9829 66.8814C94.2724 68.6213 98.8698 69.5168 103.513 69.5168C108.156 69.5168 112.753 68.6213 117.042 66.8814C121.332 65.1415 125.229 62.5913 128.512 59.3765C131.795 56.1616 134.4 52.345 136.176 48.1446C137.953 43.9441 138.868 39.4421 138.868 34.8956C138.911 30.3243 138.029 25.7898 136.271 21.5547C134.513 17.3196 131.915 13.4679 128.627 10.2226C125.339 6.97725 121.426 4.40275 117.115 2.64805C112.805 0.893358 108.181 -0.00667666 103.513 3.72874e-05ZM103.513 59.1515C89.342 59.1515 79.605 48.2163 79.605 34.7549C79.605 21.4412 89.342 10.3653 103.513 10.3653C117.683 10.3653 127.42 21.4412 127.42 34.7549C127.42 48.2163 117.683 59.1515 103.513 59.1515Z" fill="#070707"/>
</svg>
