<svg width="217" height="29" viewBox="0 0 217 29" fill="none" xmlns="http://www.w3.org/2000/svg">
<path d="M144.395 13.8053C144.422 11.6285 143.937 9.47085 142.972 7.47065C141.654 4.70126 139.187 2.49121 136.085 1.30071C133.489 0.398761 130.717 -0.0319905 127.931 0.0337847C124.131 -0.0422309 120.275 0.0337847 116.547 0.0337847H110.484V28.9071H128.272C130.349 28.9198 132.418 28.6768 134.42 28.1849C136.613 27.6603 138.612 26.6332 140.22 25.2061C141.828 23.779 142.988 22.0017 143.584 20.0512C144.216 17.9889 144.49 15.8526 144.395 13.7166M135.857 17.454C135.551 18.5931 134.886 19.6308 133.941 20.4454C132.996 21.2599 131.809 21.8176 130.521 22.053C129.181 22.3799 127.797 22.5419 126.408 22.5344H118.61V6.40643H120.816C123.178 6.40643 125.626 6.40643 128.016 6.40643C128.981 6.43668 129.938 6.5772 130.862 6.82451C132.052 7.10244 133.135 7.66298 133.994 8.44624C134.854 9.22949 135.459 10.206 135.743 11.2714C136.438 13.3341 136.468 15.5291 135.829 17.6061" fill="white"/>
<path d="M158.398 6.57535H180.826V0H150.415V0.0253385H150.387V28.9746H150.984V29H180.826V22.3739H158.398V17.3062V17.2809H172.814V11.2123H158.398V11.1743V6.57535Z" fill="white"/>
<path d="M95.3446 28.954H104.537L95.3446 17.1716H95.4157L97.5645 16.6141C98.825 16.2888 100.004 15.7512 101.037 15.0305C101.83 14.4366 102.481 13.7065 102.951 12.8837C103.42 12.0609 103.698 11.1622 103.769 10.2415C103.904 9.21879 103.904 8.18553 103.769 7.16284C103.668 5.77547 103.115 4.44439 102.177 3.33272C101.24 2.22105 99.958 1.37707 98.4895 0.904222C96.4286 0.262502 94.2543 -0.0422375 92.0716 0.00470351C87.3898 0.00470351 82.6226 0.00470351 78.0119 0.00470351H71.6367V28.9287H79.6911V17.767H86.6071L95.3446 28.954ZM84.7856 11.3437H79.6911V6.49137H92.0574C92.8714 6.51282 93.6752 6.65852 94.4338 6.92213C94.8785 7.11633 95.2369 7.43815 95.4511 7.83574C95.6654 8.23334 95.7231 8.68356 95.615 9.11391C95.3873 10.3175 94.4196 11.0143 92.7689 11.179C90.8776 11.3451 88.9764 11.4043 87.0767 11.3564H84.7856" fill="white"/>
<path d="M59.9396 28.9493H68.0225L51.6148 0H46.0365L30.7246 28.9746H38.2098L41.7389 22.1839H55.6421L59.9396 28.9493ZM44.2862 16.8881L48.5553 9.46395C49.4945 10.8196 53.0806 16.8881 53.0237 16.8881H44.2862Z" fill="white"/>
<path d="M35.8322 0H27.7208L18.2292 17.9524L8.85131 0H0L15.07 28.9113H21.0468L35.8322 0Z" fill="white"/>
<path d="M217 0H207.836L200.65 8.85582L193.449 0H184.299L196.067 14.4936L184.299 29H193.449L200.65 20.1441L207.836 29H217L205.232 14.4936L217 0Z" fill="white"/>
</svg>
